<mxfile host="Electron" modified="2023-12-11T08:47:22.626Z" agent="Mozilla/5.0 (Windows NT 10.0; Win64; x64) AppleWebKit/537.36 (KHTML, like Gecko) draw.io/22.1.2 Chrome/114.0.5735.289 Electron/25.9.4 Safari/537.36" etag="kC2PKwEyiSCgLJayZbkJ" version="22.1.2" type="device">
  <diagram name="Page-1" id="YVvjcciK5aUMX96zlNBk">
    <mxGraphModel dx="2097" dy="727" grid="1" gridSize="10" guides="1" tooltips="1" connect="1" arrows="1" fold="1" page="1" pageScale="1" pageWidth="850" pageHeight="1100" math="0" shadow="0">
      <root>
        <mxCell id="0" />
        <mxCell id="1" parent="0" />
        <mxCell id="DnMKJDQOREoVa0s89lyH-1" value="Ringbuffer fixed size" style="rounded=0;whiteSpace=wrap;html=1;" vertex="1" parent="1">
          <mxGeometry x="310" y="195" width="120" height="60" as="geometry" />
        </mxCell>
        <mxCell id="DnMKJDQOREoVa0s89lyH-2" value="" style="rounded=0;whiteSpace=wrap;html=1;container=1;" vertex="1" parent="1">
          <mxGeometry y="380" width="270" height="200" as="geometry" />
        </mxCell>
        <mxCell id="DnMKJDQOREoVa0s89lyH-5" value="Ringbuffer&lt;br&gt;Byte" style="rounded=0;whiteSpace=wrap;html=1;" vertex="1" parent="DnMKJDQOREoVa0s89lyH-2">
          <mxGeometry y="130" width="90" height="60" as="geometry" />
        </mxCell>
        <mxCell id="DnMKJDQOREoVa0s89lyH-6" value="Ringbuffer&lt;br&gt;queue object" style="rounded=0;whiteSpace=wrap;html=1;" vertex="1" parent="DnMKJDQOREoVa0s89lyH-2">
          <mxGeometry x="190" y="80" width="80" height="60" as="geometry" />
        </mxCell>
        <mxCell id="DnMKJDQOREoVa0s89lyH-4" value="&lt;b&gt;&lt;font style=&quot;font-size: 15px;&quot;&gt;nonOs Type&lt;/font&gt;&lt;/b&gt;" style="text;html=1;strokeColor=none;fillColor=none;align=center;verticalAlign=middle;whiteSpace=wrap;rounded=0;" vertex="1" parent="DnMKJDQOREoVa0s89lyH-2">
          <mxGeometry x="85" width="100" height="30" as="geometry" />
        </mxCell>
        <mxCell id="DnMKJDQOREoVa0s89lyH-58" value="timeout event" style="text;html=1;strokeColor=none;fillColor=none;align=center;verticalAlign=middle;whiteSpace=wrap;rounded=0;" vertex="1" parent="DnMKJDQOREoVa0s89lyH-2">
          <mxGeometry x="110" y="120" width="60" height="30" as="geometry" />
        </mxCell>
        <mxCell id="DnMKJDQOREoVa0s89lyH-36" value="" style="shape=table;startSize=0;container=1;collapsible=0;childLayout=tableLayout;fontSize=16;" vertex="1" parent="DnMKJDQOREoVa0s89lyH-2">
          <mxGeometry x="180" y="80" width="10" height="90" as="geometry" />
        </mxCell>
        <mxCell id="DnMKJDQOREoVa0s89lyH-37" value="" style="shape=tableRow;horizontal=0;startSize=0;swimlaneHead=0;swimlaneBody=0;strokeColor=inherit;top=0;left=0;bottom=0;right=0;collapsible=0;dropTarget=0;fillColor=none;points=[[0,0.5],[1,0.5]];portConstraint=eastwest;fontSize=16;" vertex="1" parent="DnMKJDQOREoVa0s89lyH-36">
          <mxGeometry width="10" height="14" as="geometry" />
        </mxCell>
        <mxCell id="DnMKJDQOREoVa0s89lyH-38" value="" style="shape=partialRectangle;html=1;whiteSpace=wrap;connectable=0;strokeColor=inherit;overflow=hidden;fillColor=none;top=0;left=0;bottom=0;right=0;pointerEvents=1;fontSize=10;" vertex="1" parent="DnMKJDQOREoVa0s89lyH-37">
          <mxGeometry width="10" height="14" as="geometry">
            <mxRectangle width="10" height="14" as="alternateBounds" />
          </mxGeometry>
        </mxCell>
        <mxCell id="DnMKJDQOREoVa0s89lyH-49" style="shape=tableRow;horizontal=0;startSize=0;swimlaneHead=0;swimlaneBody=0;strokeColor=inherit;top=0;left=0;bottom=0;right=0;collapsible=0;dropTarget=0;fillColor=none;points=[[0,0.5],[1,0.5]];portConstraint=eastwest;fontSize=16;" vertex="1" parent="DnMKJDQOREoVa0s89lyH-36">
          <mxGeometry y="14" width="10" height="15" as="geometry" />
        </mxCell>
        <mxCell id="DnMKJDQOREoVa0s89lyH-50" style="shape=partialRectangle;html=1;whiteSpace=wrap;connectable=0;strokeColor=inherit;overflow=hidden;fillColor=none;top=0;left=0;bottom=0;right=0;pointerEvents=1;fontSize=16;" vertex="1" parent="DnMKJDQOREoVa0s89lyH-49">
          <mxGeometry width="10" height="15" as="geometry">
            <mxRectangle width="10" height="15" as="alternateBounds" />
          </mxGeometry>
        </mxCell>
        <mxCell id="DnMKJDQOREoVa0s89lyH-53" style="shape=tableRow;horizontal=0;startSize=0;swimlaneHead=0;swimlaneBody=0;strokeColor=inherit;top=0;left=0;bottom=0;right=0;collapsible=0;dropTarget=0;fillColor=none;points=[[0,0.5],[1,0.5]];portConstraint=eastwest;fontSize=16;" vertex="1" parent="DnMKJDQOREoVa0s89lyH-36">
          <mxGeometry y="29" width="10" height="14" as="geometry" />
        </mxCell>
        <mxCell id="DnMKJDQOREoVa0s89lyH-54" style="shape=partialRectangle;html=1;whiteSpace=wrap;connectable=0;strokeColor=inherit;overflow=hidden;fillColor=none;top=0;left=0;bottom=0;right=0;pointerEvents=1;fontSize=16;" vertex="1" parent="DnMKJDQOREoVa0s89lyH-53">
          <mxGeometry width="10" height="14" as="geometry">
            <mxRectangle width="10" height="14" as="alternateBounds" />
          </mxGeometry>
        </mxCell>
        <mxCell id="DnMKJDQOREoVa0s89lyH-45" value="" style="shape=tableRow;horizontal=0;startSize=0;swimlaneHead=0;swimlaneBody=0;strokeColor=inherit;top=0;left=0;bottom=0;right=0;collapsible=0;dropTarget=0;fillColor=none;points=[[0,0.5],[1,0.5]];portConstraint=eastwest;fontSize=16;" vertex="1" parent="DnMKJDQOREoVa0s89lyH-36">
          <mxGeometry y="43" width="10" height="13" as="geometry" />
        </mxCell>
        <mxCell id="DnMKJDQOREoVa0s89lyH-46" value="" style="shape=partialRectangle;html=1;whiteSpace=wrap;connectable=0;strokeColor=inherit;overflow=hidden;fillColor=none;top=0;left=0;bottom=0;right=0;pointerEvents=1;fontSize=16;" vertex="1" parent="DnMKJDQOREoVa0s89lyH-45">
          <mxGeometry width="10" height="13" as="geometry">
            <mxRectangle width="10" height="13" as="alternateBounds" />
          </mxGeometry>
        </mxCell>
        <mxCell id="DnMKJDQOREoVa0s89lyH-51" style="shape=tableRow;horizontal=0;startSize=0;swimlaneHead=0;swimlaneBody=0;strokeColor=inherit;top=0;left=0;bottom=0;right=0;collapsible=0;dropTarget=0;fillColor=none;points=[[0,0.5],[1,0.5]];portConstraint=eastwest;fontSize=16;" vertex="1" parent="DnMKJDQOREoVa0s89lyH-36">
          <mxGeometry y="56" width="10" height="18" as="geometry" />
        </mxCell>
        <mxCell id="DnMKJDQOREoVa0s89lyH-52" style="shape=partialRectangle;html=1;whiteSpace=wrap;connectable=0;strokeColor=inherit;overflow=hidden;fillColor=none;top=0;left=0;bottom=0;right=0;pointerEvents=1;fontSize=16;" vertex="1" parent="DnMKJDQOREoVa0s89lyH-51">
          <mxGeometry width="10" height="18" as="geometry">
            <mxRectangle width="10" height="18" as="alternateBounds" />
          </mxGeometry>
        </mxCell>
        <mxCell id="DnMKJDQOREoVa0s89lyH-41" value="" style="shape=tableRow;horizontal=0;startSize=0;swimlaneHead=0;swimlaneBody=0;strokeColor=inherit;top=0;left=0;bottom=0;right=0;collapsible=0;dropTarget=0;fillColor=none;points=[[0,0.5],[1,0.5]];portConstraint=eastwest;fontSize=16;" vertex="1" parent="DnMKJDQOREoVa0s89lyH-36">
          <mxGeometry y="74" width="10" height="16" as="geometry" />
        </mxCell>
        <mxCell id="DnMKJDQOREoVa0s89lyH-42" value="" style="shape=partialRectangle;html=1;whiteSpace=wrap;connectable=0;strokeColor=inherit;overflow=hidden;fillColor=none;top=0;left=0;bottom=0;right=0;pointerEvents=1;fontSize=16;" vertex="1" parent="DnMKJDQOREoVa0s89lyH-41">
          <mxGeometry width="10" height="16" as="geometry">
            <mxRectangle width="10" height="16" as="alternateBounds" />
          </mxGeometry>
        </mxCell>
        <mxCell id="DnMKJDQOREoVa0s89lyH-66" value="" style="rounded=0;whiteSpace=wrap;html=1;" vertex="1" parent="DnMKJDQOREoVa0s89lyH-2">
          <mxGeometry x="90" y="160" width="10" height="10" as="geometry" />
        </mxCell>
        <mxCell id="DnMKJDQOREoVa0s89lyH-71" style="edgeStyle=orthogonalEdgeStyle;rounded=0;orthogonalLoop=1;jettySize=auto;html=1;entryX=0.167;entryY=0.708;entryDx=0;entryDy=0;entryPerimeter=0;" edge="1" parent="DnMKJDQOREoVa0s89lyH-2" source="DnMKJDQOREoVa0s89lyH-66" target="DnMKJDQOREoVa0s89lyH-41">
          <mxGeometry relative="1" as="geometry" />
        </mxCell>
        <mxCell id="DnMKJDQOREoVa0s89lyH-3" value="&lt;b&gt;&lt;font style=&quot;font-size: 16px;&quot;&gt;Data Parse complex&lt;/font&gt;&lt;/b&gt;" style="text;html=1;strokeColor=none;fillColor=none;align=center;verticalAlign=middle;whiteSpace=wrap;rounded=0;" vertex="1" parent="1">
          <mxGeometry x="200" y="320" width="330" height="30" as="geometry" />
        </mxCell>
        <mxCell id="DnMKJDQOREoVa0s89lyH-7" value="" style="rounded=0;whiteSpace=wrap;html=1;container=1;" vertex="1" parent="1">
          <mxGeometry x="460" y="380" width="280" height="200" as="geometry" />
        </mxCell>
        <mxCell id="DnMKJDQOREoVa0s89lyH-10" value="&lt;b&gt;&lt;font style=&quot;font-size: 15px;&quot;&gt;RTOs Type&lt;/font&gt;&lt;/b&gt;" style="text;html=1;strokeColor=none;fillColor=none;align=center;verticalAlign=middle;whiteSpace=wrap;rounded=0;" vertex="1" parent="DnMKJDQOREoVa0s89lyH-7">
          <mxGeometry x="90" width="100" height="30" as="geometry" />
        </mxCell>
        <mxCell id="DnMKJDQOREoVa0s89lyH-8" value="Ringbuffer&lt;br&gt;Byte" style="rounded=0;whiteSpace=wrap;html=1;" vertex="1" parent="DnMKJDQOREoVa0s89lyH-7">
          <mxGeometry x="10" y="130" width="80" height="60" as="geometry" />
        </mxCell>
        <mxCell id="DnMKJDQOREoVa0s89lyH-60" value="timeout event" style="text;html=1;strokeColor=none;fillColor=none;align=center;verticalAlign=middle;whiteSpace=wrap;rounded=0;" vertex="1" parent="DnMKJDQOREoVa0s89lyH-7">
          <mxGeometry x="110" y="120" width="60" height="30" as="geometry" />
        </mxCell>
        <mxCell id="DnMKJDQOREoVa0s89lyH-9" value="Rtos Queue" style="rounded=0;whiteSpace=wrap;html=1;" vertex="1" parent="DnMKJDQOREoVa0s89lyH-7">
          <mxGeometry x="200" y="80" width="80" height="60" as="geometry" />
        </mxCell>
        <mxCell id="DnMKJDQOREoVa0s89lyH-69" value="" style="rounded=0;whiteSpace=wrap;html=1;" vertex="1" parent="DnMKJDQOREoVa0s89lyH-7">
          <mxGeometry x="90" y="157" width="10" height="10" as="geometry" />
        </mxCell>
        <mxCell id="DnMKJDQOREoVa0s89lyH-25" value="queue object type" style="swimlane;fontStyle=0;childLayout=stackLayout;horizontal=1;startSize=30;horizontalStack=0;resizeParent=1;resizeParentMax=0;resizeLast=0;collapsible=1;marginBottom=0;whiteSpace=wrap;html=1;" vertex="1" parent="1">
          <mxGeometry x="80" y="190" width="140" height="90" as="geometry" />
        </mxCell>
        <mxCell id="DnMKJDQOREoVa0s89lyH-26" value="head" style="text;strokeColor=none;fillColor=none;align=left;verticalAlign=middle;spacingLeft=4;spacingRight=4;overflow=hidden;points=[[0,0.5],[1,0.5]];portConstraint=eastwest;rotatable=0;whiteSpace=wrap;html=1;" vertex="1" parent="DnMKJDQOREoVa0s89lyH-25">
          <mxGeometry y="30" width="140" height="30" as="geometry" />
        </mxCell>
        <mxCell id="DnMKJDQOREoVa0s89lyH-29" value="tail&amp;nbsp; &amp;nbsp;|&amp;nbsp; &amp;nbsp; length&amp;nbsp;" style="text;strokeColor=none;fillColor=none;align=left;verticalAlign=middle;spacingLeft=4;spacingRight=4;overflow=hidden;points=[[0,0.5],[1,0.5]];portConstraint=eastwest;rotatable=0;whiteSpace=wrap;html=1;" vertex="1" parent="DnMKJDQOREoVa0s89lyH-25">
          <mxGeometry y="60" width="140" height="30" as="geometry" />
        </mxCell>
        <mxCell id="DnMKJDQOREoVa0s89lyH-30" value="" style="shape=flexArrow;endArrow=classic;html=1;rounded=0;" edge="1" parent="1">
          <mxGeometry width="50" height="50" relative="1" as="geometry">
            <mxPoint x="-70" y="540" as="sourcePoint" />
            <mxPoint y="540" as="targetPoint" />
          </mxGeometry>
        </mxCell>
        <mxCell id="DnMKJDQOREoVa0s89lyH-31" value="" style="shape=flexArrow;endArrow=classic;html=1;rounded=0;" edge="1" parent="1">
          <mxGeometry width="50" height="50" relative="1" as="geometry">
            <mxPoint x="270" y="490" as="sourcePoint" />
            <mxPoint x="330" y="490" as="targetPoint" />
          </mxGeometry>
        </mxCell>
        <mxCell id="DnMKJDQOREoVa0s89lyH-33" value="Byte input" style="text;html=1;strokeColor=none;fillColor=none;align=center;verticalAlign=middle;whiteSpace=wrap;rounded=0;" vertex="1" parent="1">
          <mxGeometry x="-80" y="490" width="60" height="30" as="geometry" />
        </mxCell>
        <mxCell id="DnMKJDQOREoVa0s89lyH-35" value="frame output" style="text;html=1;strokeColor=none;fillColor=none;align=center;verticalAlign=middle;whiteSpace=wrap;rounded=0;" vertex="1" parent="1">
          <mxGeometry x="280" y="440" width="60" height="30" as="geometry" />
        </mxCell>
        <mxCell id="DnMKJDQOREoVa0s89lyH-61" value="" style="shape=tableRow;horizontal=0;startSize=0;swimlaneHead=0;swimlaneBody=0;strokeColor=inherit;top=0;left=0;bottom=0;right=0;collapsible=0;dropTarget=0;fillColor=none;points=[[0,0.5],[1,0.5]];portConstraint=eastwest;fontSize=16;" vertex="1" parent="1">
          <mxGeometry x="190" y="774" width="10" height="16" as="geometry" />
        </mxCell>
        <mxCell id="DnMKJDQOREoVa0s89lyH-62" value="" style="shape=partialRectangle;html=1;whiteSpace=wrap;connectable=0;strokeColor=inherit;overflow=hidden;fillColor=none;top=0;left=0;bottom=0;right=0;pointerEvents=1;fontSize=16;" vertex="1" parent="DnMKJDQOREoVa0s89lyH-61">
          <mxGeometry width="10" height="16" as="geometry">
            <mxRectangle width="10" height="16" as="alternateBounds" />
          </mxGeometry>
        </mxCell>
        <mxCell id="DnMKJDQOREoVa0s89lyH-67" value="" style="shape=tableRow;horizontal=0;startSize=0;swimlaneHead=0;swimlaneBody=0;strokeColor=inherit;top=0;left=0;bottom=0;right=0;collapsible=0;dropTarget=0;fillColor=none;points=[[0,0.5],[1,0.5]];portConstraint=eastwest;fontSize=16;" vertex="1" parent="1">
          <mxGeometry x="200" y="784" width="10" height="16" as="geometry" />
        </mxCell>
        <mxCell id="DnMKJDQOREoVa0s89lyH-68" value="" style="shape=partialRectangle;html=1;whiteSpace=wrap;connectable=0;strokeColor=inherit;overflow=hidden;fillColor=none;top=0;left=0;bottom=0;right=0;pointerEvents=1;fontSize=16;" vertex="1" parent="DnMKJDQOREoVa0s89lyH-67">
          <mxGeometry width="10" height="16" as="geometry">
            <mxRectangle width="10" height="16" as="alternateBounds" />
          </mxGeometry>
        </mxCell>
        <mxCell id="DnMKJDQOREoVa0s89lyH-72" value="" style="shape=table;startSize=0;container=1;collapsible=0;childLayout=tableLayout;fontSize=16;" vertex="1" parent="1">
          <mxGeometry x="650" y="460" width="10" height="90" as="geometry" />
        </mxCell>
        <mxCell id="DnMKJDQOREoVa0s89lyH-73" value="" style="shape=tableRow;horizontal=0;startSize=0;swimlaneHead=0;swimlaneBody=0;strokeColor=inherit;top=0;left=0;bottom=0;right=0;collapsible=0;dropTarget=0;fillColor=none;points=[[0,0.5],[1,0.5]];portConstraint=eastwest;fontSize=16;" vertex="1" parent="DnMKJDQOREoVa0s89lyH-72">
          <mxGeometry width="10" height="14" as="geometry" />
        </mxCell>
        <mxCell id="DnMKJDQOREoVa0s89lyH-74" value="" style="shape=partialRectangle;html=1;whiteSpace=wrap;connectable=0;strokeColor=inherit;overflow=hidden;fillColor=none;top=0;left=0;bottom=0;right=0;pointerEvents=1;fontSize=10;" vertex="1" parent="DnMKJDQOREoVa0s89lyH-73">
          <mxGeometry width="10" height="14" as="geometry">
            <mxRectangle width="10" height="14" as="alternateBounds" />
          </mxGeometry>
        </mxCell>
        <mxCell id="DnMKJDQOREoVa0s89lyH-75" style="shape=tableRow;horizontal=0;startSize=0;swimlaneHead=0;swimlaneBody=0;strokeColor=inherit;top=0;left=0;bottom=0;right=0;collapsible=0;dropTarget=0;fillColor=none;points=[[0,0.5],[1,0.5]];portConstraint=eastwest;fontSize=16;" vertex="1" parent="DnMKJDQOREoVa0s89lyH-72">
          <mxGeometry y="14" width="10" height="15" as="geometry" />
        </mxCell>
        <mxCell id="DnMKJDQOREoVa0s89lyH-76" style="shape=partialRectangle;html=1;whiteSpace=wrap;connectable=0;strokeColor=inherit;overflow=hidden;fillColor=none;top=0;left=0;bottom=0;right=0;pointerEvents=1;fontSize=16;" vertex="1" parent="DnMKJDQOREoVa0s89lyH-75">
          <mxGeometry width="10" height="15" as="geometry">
            <mxRectangle width="10" height="15" as="alternateBounds" />
          </mxGeometry>
        </mxCell>
        <mxCell id="DnMKJDQOREoVa0s89lyH-77" style="shape=tableRow;horizontal=0;startSize=0;swimlaneHead=0;swimlaneBody=0;strokeColor=inherit;top=0;left=0;bottom=0;right=0;collapsible=0;dropTarget=0;fillColor=none;points=[[0,0.5],[1,0.5]];portConstraint=eastwest;fontSize=16;" vertex="1" parent="DnMKJDQOREoVa0s89lyH-72">
          <mxGeometry y="29" width="10" height="14" as="geometry" />
        </mxCell>
        <mxCell id="DnMKJDQOREoVa0s89lyH-78" style="shape=partialRectangle;html=1;whiteSpace=wrap;connectable=0;strokeColor=inherit;overflow=hidden;fillColor=none;top=0;left=0;bottom=0;right=0;pointerEvents=1;fontSize=16;" vertex="1" parent="DnMKJDQOREoVa0s89lyH-77">
          <mxGeometry width="10" height="14" as="geometry">
            <mxRectangle width="10" height="14" as="alternateBounds" />
          </mxGeometry>
        </mxCell>
        <mxCell id="DnMKJDQOREoVa0s89lyH-79" value="" style="shape=tableRow;horizontal=0;startSize=0;swimlaneHead=0;swimlaneBody=0;strokeColor=inherit;top=0;left=0;bottom=0;right=0;collapsible=0;dropTarget=0;fillColor=none;points=[[0,0.5],[1,0.5]];portConstraint=eastwest;fontSize=16;" vertex="1" parent="DnMKJDQOREoVa0s89lyH-72">
          <mxGeometry y="43" width="10" height="13" as="geometry" />
        </mxCell>
        <mxCell id="DnMKJDQOREoVa0s89lyH-80" value="" style="shape=partialRectangle;html=1;whiteSpace=wrap;connectable=0;strokeColor=inherit;overflow=hidden;fillColor=none;top=0;left=0;bottom=0;right=0;pointerEvents=1;fontSize=16;" vertex="1" parent="DnMKJDQOREoVa0s89lyH-79">
          <mxGeometry width="10" height="13" as="geometry">
            <mxRectangle width="10" height="13" as="alternateBounds" />
          </mxGeometry>
        </mxCell>
        <mxCell id="DnMKJDQOREoVa0s89lyH-81" style="shape=tableRow;horizontal=0;startSize=0;swimlaneHead=0;swimlaneBody=0;strokeColor=inherit;top=0;left=0;bottom=0;right=0;collapsible=0;dropTarget=0;fillColor=none;points=[[0,0.5],[1,0.5]];portConstraint=eastwest;fontSize=16;" vertex="1" parent="DnMKJDQOREoVa0s89lyH-72">
          <mxGeometry y="56" width="10" height="18" as="geometry" />
        </mxCell>
        <mxCell id="DnMKJDQOREoVa0s89lyH-82" style="shape=partialRectangle;html=1;whiteSpace=wrap;connectable=0;strokeColor=inherit;overflow=hidden;fillColor=none;top=0;left=0;bottom=0;right=0;pointerEvents=1;fontSize=16;" vertex="1" parent="DnMKJDQOREoVa0s89lyH-81">
          <mxGeometry width="10" height="18" as="geometry">
            <mxRectangle width="10" height="18" as="alternateBounds" />
          </mxGeometry>
        </mxCell>
        <mxCell id="DnMKJDQOREoVa0s89lyH-83" value="" style="shape=tableRow;horizontal=0;startSize=0;swimlaneHead=0;swimlaneBody=0;strokeColor=inherit;top=0;left=0;bottom=0;right=0;collapsible=0;dropTarget=0;fillColor=none;points=[[0,0.5],[1,0.5]];portConstraint=eastwest;fontSize=16;" vertex="1" parent="DnMKJDQOREoVa0s89lyH-72">
          <mxGeometry y="74" width="10" height="16" as="geometry" />
        </mxCell>
        <mxCell id="DnMKJDQOREoVa0s89lyH-84" value="" style="shape=partialRectangle;html=1;whiteSpace=wrap;connectable=0;strokeColor=inherit;overflow=hidden;fillColor=none;top=0;left=0;bottom=0;right=0;pointerEvents=1;fontSize=16;" vertex="1" parent="DnMKJDQOREoVa0s89lyH-83">
          <mxGeometry width="10" height="16" as="geometry">
            <mxRectangle width="10" height="16" as="alternateBounds" />
          </mxGeometry>
        </mxCell>
        <mxCell id="DnMKJDQOREoVa0s89lyH-86" style="edgeStyle=orthogonalEdgeStyle;rounded=0;orthogonalLoop=1;jettySize=auto;html=1;entryX=0;entryY=0.5;entryDx=0;entryDy=0;" edge="1" parent="1" source="DnMKJDQOREoVa0s89lyH-69" target="DnMKJDQOREoVa0s89lyH-83">
          <mxGeometry relative="1" as="geometry" />
        </mxCell>
        <mxCell id="DnMKJDQOREoVa0s89lyH-88" value="frame output" style="text;html=1;strokeColor=none;fillColor=none;align=center;verticalAlign=middle;whiteSpace=wrap;rounded=0;" vertex="1" parent="1">
          <mxGeometry x="750" y="440" width="60" height="30" as="geometry" />
        </mxCell>
        <mxCell id="DnMKJDQOREoVa0s89lyH-89" value="" style="shape=flexArrow;endArrow=classic;html=1;rounded=0;" edge="1" parent="1">
          <mxGeometry width="50" height="50" relative="1" as="geometry">
            <mxPoint x="740" y="490" as="sourcePoint" />
            <mxPoint x="800" y="490" as="targetPoint" />
          </mxGeometry>
        </mxCell>
        <mxCell id="DnMKJDQOREoVa0s89lyH-90" value="" style="shape=flexArrow;endArrow=classic;html=1;rounded=0;" edge="1" parent="1">
          <mxGeometry width="50" height="50" relative="1" as="geometry">
            <mxPoint x="390" y="540" as="sourcePoint" />
            <mxPoint x="460" y="540" as="targetPoint" />
          </mxGeometry>
        </mxCell>
        <mxCell id="DnMKJDQOREoVa0s89lyH-91" value="Byte input" style="text;html=1;strokeColor=none;fillColor=none;align=center;verticalAlign=middle;whiteSpace=wrap;rounded=0;" vertex="1" parent="1">
          <mxGeometry x="380" y="490" width="60" height="30" as="geometry" />
        </mxCell>
        <mxCell id="DnMKJDQOREoVa0s89lyH-92" value="funtion" style="swimlane;fontStyle=0;childLayout=stackLayout;horizontal=1;startSize=30;horizontalStack=0;resizeParent=1;resizeParentMax=0;resizeLast=0;collapsible=1;marginBottom=0;whiteSpace=wrap;html=1;" vertex="1" parent="1">
          <mxGeometry x="560" y="50" width="140" height="180" as="geometry" />
        </mxCell>
        <mxCell id="DnMKJDQOREoVa0s89lyH-93" value="put&amp;nbsp;" style="text;strokeColor=none;fillColor=none;align=left;verticalAlign=middle;spacingLeft=4;spacingRight=4;overflow=hidden;points=[[0,0.5],[1,0.5]];portConstraint=eastwest;rotatable=0;whiteSpace=wrap;html=1;" vertex="1" parent="DnMKJDQOREoVa0s89lyH-92">
          <mxGeometry y="30" width="140" height="30" as="geometry" />
        </mxCell>
        <mxCell id="DnMKJDQOREoVa0s89lyH-94" value="get" style="text;strokeColor=none;fillColor=none;align=left;verticalAlign=middle;spacingLeft=4;spacingRight=4;overflow=hidden;points=[[0,0.5],[1,0.5]];portConstraint=eastwest;rotatable=0;whiteSpace=wrap;html=1;" vertex="1" parent="DnMKJDQOREoVa0s89lyH-92">
          <mxGeometry y="60" width="140" height="30" as="geometry" />
        </mxCell>
        <mxCell id="DnMKJDQOREoVa0s89lyH-97" value="get history" style="text;strokeColor=none;fillColor=none;align=left;verticalAlign=middle;spacingLeft=4;spacingRight=4;overflow=hidden;points=[[0,0.5],[1,0.5]];portConstraint=eastwest;rotatable=0;whiteSpace=wrap;html=1;" vertex="1" parent="DnMKJDQOREoVa0s89lyH-92">
          <mxGeometry y="90" width="140" height="30" as="geometry" />
        </mxCell>
        <mxCell id="DnMKJDQOREoVa0s89lyH-96" value="check size" style="text;strokeColor=none;fillColor=none;align=left;verticalAlign=middle;spacingLeft=4;spacingRight=4;overflow=hidden;points=[[0,0.5],[1,0.5]];portConstraint=eastwest;rotatable=0;whiteSpace=wrap;html=1;" vertex="1" parent="DnMKJDQOREoVa0s89lyH-92">
          <mxGeometry y="120" width="140" height="30" as="geometry" />
        </mxCell>
        <mxCell id="DnMKJDQOREoVa0s89lyH-95" value="check max" style="text;strokeColor=none;fillColor=none;align=left;verticalAlign=middle;spacingLeft=4;spacingRight=4;overflow=hidden;points=[[0,0.5],[1,0.5]];portConstraint=eastwest;rotatable=0;whiteSpace=wrap;html=1;" vertex="1" parent="DnMKJDQOREoVa0s89lyH-92">
          <mxGeometry y="150" width="140" height="30" as="geometry" />
        </mxCell>
        <mxCell id="DnMKJDQOREoVa0s89lyH-98" value="" style="rounded=1;whiteSpace=wrap;html=1;dashed=1;fillColor=none;strokeWidth=2;" vertex="1" parent="1">
          <mxGeometry x="245" y="305" width="250" height="60" as="geometry" />
        </mxCell>
        <mxCell id="DnMKJDQOREoVa0s89lyH-100" value="" style="shape=cylinder3;whiteSpace=wrap;html=1;boundedLbl=1;backgroundOutline=1;size=15;" vertex="1" parent="1">
          <mxGeometry x="230" y="620" width="90" height="120" as="geometry" />
        </mxCell>
        <mxCell id="DnMKJDQOREoVa0s89lyH-101" value="2x rb control block" style="text;html=1;strokeColor=none;fillColor=none;align=center;verticalAlign=middle;whiteSpace=wrap;rounded=0;" vertex="1" parent="1">
          <mxGeometry x="120" y="700" width="60" height="30" as="geometry" />
        </mxCell>
      </root>
    </mxGraphModel>
  </diagram>
</mxfile>
